<svg width="112" height="99" viewBox="0 0 112 99" fill="none" xmlns="http://www.w3.org/2000/svg">
<rect width="12.0655" height="4.92181" transform="matrix(0.288169 0.957579 -0.943618 0.331036 4.64429 31.3892)" fill="#9AF5FC" fill-opacity="0.75"/>
<rect width="7.0907" height="5.09519" transform="matrix(0.704694 -0.709511 0.653639 0.756807 62.0952 36.1607)" fill="#BA3E03" fill-opacity="0.65"/>
<rect width="13.7881" height="5.16013" transform="matrix(0.818784 0.574102 -0.515422 0.856936 11.2733 38.5465)" fill="#C9FCBE" fill-opacity="0.65"/>
<rect width="13.6168" height="2.85782" transform="matrix(-0.916585 -0.399839 0.350468 -0.936575 101.869 50.4753)" fill="#C9FCBE" fill-opacity="0.65"/>
<rect width="6.87511" height="7.61679" transform="matrix(0.955266 -0.295749 0.256681 0.966496 90.8206 43.318)" fill="#755FFE" fill-opacity="0.9"/>
<circle cx="66.1019" cy="47.5761" r="2" fill="#480CA7" fill-opacity="0.6"/>
<circle cx="34.1019" cy="3.57611" r="1" fill="#FF21FB" fill-opacity="0.9"/>
<ellipse cx="59.1019" cy="90.0761" rx="1" ry="1.5" fill="#FC9E1C" fill-opacity="0.85"/>
<circle cx="6.10187" cy="95.5761" r="2" fill="#FF21FB" fill-opacity="0.35"/>
<path d="M81.4206 27.1618L82.5649 29.4855L80.4127 30.721L79.2684 28.3973L81.4206 27.1618Z" fill="#9AF5FC" fill-opacity="0.35"/>
<path d="M106.908 39.8331L104.127 36.8303L105.145 32.7284L108.944 31.6293L111.725 34.6321L110.707 38.734L106.908 39.8331Z" fill="#03A3F5" fill-opacity="0.75"/>
<path d="M111.905 63.7427L111.082 66.841L109.008 64.5224L111.905 63.7427Z" fill="#03A3F5" fill-opacity="0.45"/>
<path d="M36.2902 12.5072L33.7929 13.9408L31.3943 12.3226L31.4931 9.27066L33.9903 7.83701L36.3889 9.45525L36.2902 12.5072Z" fill="#9DED1A"/>
<path d="M24.4239 43.9522L23.2286 41.1845L24.8509 38.683L27.6685 38.9492L28.8638 41.7168L27.2415 44.2183L24.4239 43.9522Z" fill="#480CA7" fill-opacity="0.65"/>
<path d="M22.6386 55.1304L20.8706 54.1964L19.9487 56.0741L19.8138 53.9539L17.8468 54.0307L19.48 52.8445L18.4349 51.0437L20.2029 51.9777L21.1248 50.1L21.2596 52.2202L23.2266 52.1434L21.5934 53.3296L22.6386 55.1304Z" fill="#F62584" fill-opacity="0.65"/>
<path d="M44.8863 5.16659L43.0623 4.36801L42.2639 6.31055L41.9924 4.20567L40.0352 4.43047L41.5877 3.12417L40.4288 1.40642L42.2529 2.20501L43.0512 0.262461L43.3227 2.36734L45.2799 2.14255L43.7274 3.44884L44.8863 5.16659Z" fill="#BA3E03" fill-opacity="0.9"/>
<path d="M44.3989 98.696L45.0679 96.4318L43.9114 94.4095L46.0085 95.1319L47.8815 93.8832L47.2124 96.1475L48.3689 98.1697L46.2718 97.4474L44.3989 98.696Z" fill="#FC9E1C" fill-opacity="0.6"/>
<path d="M11.8831 16.1827L9.17307 15.7677L8.70114 18.6788L7.67896 15.9373L5.10801 16.9516L6.79591 14.625L4.69689 12.7282L7.40696 13.1432L7.87889 10.2321L8.90107 12.9736L11.472 11.9593L9.78412 14.2859L11.8831 16.1827Z" fill="#755FFE" fill-opacity="0.75"/>
<path d="M26.9297 42.5505L26.4326 44.7033L28.1752 45.879L26.1253 46.0338L25.6282 48.1866L24.8584 46.1294L22.8085 46.2842L24.3827 44.8581L23.6129 42.8009L25.3555 43.9766L26.9297 42.5505Z" fill="#BA3E03" fill-opacity="0.6"/>
</svg>
